<svg width="48" height="48" viewBox="0 0 48 48" fill="none" xmlns="http://www.w3.org/2000/svg">
<rect x="0.5" y="0.5" width="47" height="47" rx="23.5" fill="white"/>
<circle cx="23.5" cy="24.5" r="0.5" fill="#424242"/>
<path d="M14.1469 33.854C13.9517 33.6587 13.9509 33.3429 14.1453 33.1485L32.2938 15H20.5C20.2239 15 20 14.7761 20 14.5C20 14.2239 20.2239 14 20.5 14H33.4997C33.6444 14 33.7751 14.0615 33.8664 14.1597C33.9635 14.2639 34.008 14.3991 34 14.5316V27.5C34 27.7761 33.7761 28 33.5 28C33.2239 28 33 27.7761 33 27.5V15.708L14.8524 33.8556C14.658 34.05 14.3422 34.0493 14.1469 33.854Z" fill="#1C1C1C"/>
<rect x="0.5" y="0.5" width="47" height="47" rx="23.5" stroke="#1C1C1C"/>
</svg>
